<svg xmlns="http://www.w3.org/2000/svg" width="165" height="40" fill="none"><path fill="#6E76F1" d="M0 7a7 7 0 0 1 7-7h26a7 7 0 0 1 7 7v26a7 7 0 0 1-7 7H7a7 7 0 0 1-7-7V7Z"/><path fill="#fff" fill-rule="evenodd" d="M32.538 13.709h-3.99a10.672 10.672 0 0 0-8.54-4.245c-5.875 0-10.646 4.719-10.646 10.53 0 5.811 4.77 10.53 10.647 10.53 3.494 0 6.598-1.67 8.54-4.245h3.989a14.071 14.071 0 0 1-12.53 7.608c-7.752 0-14.047-6.225-14.047-13.893C5.961 12.326 12.256 6.1 20.01 6.1a14.07 14.07 0 0 1 12.529 7.608Zm-9.186 6.905a3.394 3.394 0 0 1-3.343 2.743c-1.878 0-3.401-1.507-3.401-3.363s1.523-3.363 3.4-3.363a3.394 3.394 0 0 1 3.344 2.743H40v1.24H23.352Z" clip-rule="evenodd"/><path fill="#363636" d="M55.723 28c-1.46 0-2.78-.32-3.965-.958a7.277 7.277 0 0 1-2.767-2.688C48.331 23.215 48 21.931 48 20.5c0-1.43.337-2.715 1.012-3.854a7.126 7.126 0 0 1 2.767-2.667c1.184-.653 2.505-.979 3.964-.979 1.184 0 2.265.208 3.242.625a6.616 6.616 0 0 1 2.478 1.813l-1.734 1.645c-1.046-1.138-2.334-1.708-3.862-1.708-.99 0-1.879.222-2.663.667a4.634 4.634 0 0 0-1.838 1.812c-.44.778-.66 1.66-.66 2.646s.22 1.868.66 2.646a4.778 4.778 0 0 0 1.838 1.833c.784.43 1.672.646 2.663.646 1.529 0 2.816-.576 3.862-1.73l1.734 1.668a6.579 6.579 0 0 1-2.498 1.812c-.978.417-2.058.625-3.242.625ZM63.788 12.333h2.58v15.459h-2.58V12.333ZM80.123 22.292c0 .18-.014.437-.041.77h-8.653c.152.82.544 1.473 1.177 1.959.647.472 1.446.708 2.396.708 1.211 0 2.21-.403 2.994-1.208l1.383 1.604a4.662 4.662 0 0 1-1.879 1.354c-.757.306-1.61.459-2.56.459-1.212 0-2.279-.243-3.2-.73a5.315 5.315 0 0 1-2.148-2.02c-.496-.875-.744-1.862-.744-2.959 0-1.083.241-2.055.723-2.916a5.274 5.274 0 0 1 2.044-2.042c.868-.486 1.845-.73 2.932-.73 1.074 0 2.03.244 2.87.73a4.897 4.897 0 0 1 1.983 2.02c.482.862.723 1.862.723 3Zm-5.576-3.667c-.826 0-1.528.25-2.106.75-.564.486-.908 1.139-1.032 1.958h6.256c-.11-.805-.447-1.458-1.011-1.958-.565-.5-1.267-.75-2.107-.75ZM92.725 16.667l-4.728 11.125h-2.664l-4.729-11.125h2.684l3.428 8.25 3.531-8.25h2.478ZM104.402 22.292c0 .18-.014.437-.041.77h-8.652c.151.82.543 1.473 1.177 1.959.647.472 1.445.708 2.395.708 1.211 0 2.209-.403 2.994-1.208l1.384 1.604a4.662 4.662 0 0 1-1.88 1.354c-.757.306-1.61.459-2.56.459-1.212 0-2.278-.243-3.2-.73a5.315 5.315 0 0 1-2.148-2.02c-.496-.875-.744-1.862-.744-2.959 0-1.083.241-2.055.723-2.916a5.274 5.274 0 0 1 2.044-2.042c.868-.486 1.845-.73 2.933-.73 1.073 0 2.03.244 2.87.73a4.9 4.9 0 0 1 1.982 2.02c.482.862.723 1.862.723 3Zm-5.575-3.667c-.826 0-1.528.25-2.107.75-.564.486-.908 1.139-1.032 1.958h6.257c-.11-.805-.448-1.458-1.012-1.958-.565-.5-1.267-.75-2.106-.75ZM109.339 18.292c.743-1.167 2.051-1.75 3.923-1.75v2.479a3.245 3.245 0 0 0-.599-.063c-1.005 0-1.789.299-2.354.896-.564.584-.846 1.43-.846 2.542v5.396h-2.582V16.667h2.458v1.625ZM115.452 12.333h2.581v15.459h-2.581V12.333ZM125.633 16.542c1.625 0 2.863.395 3.717 1.187.867.778 1.301 1.959 1.301 3.542v6.52h-2.437v-1.354c-.316.487-.771.862-1.363 1.125-.578.25-1.28.375-2.106.375-.826 0-1.549-.138-2.168-.416-.619-.292-1.101-.688-1.445-1.188a3.125 3.125 0 0 1-.496-1.729c0-1 .365-1.798 1.094-2.396.744-.61 1.907-.916 3.49-.916h2.85v-.167c0-.778-.234-1.375-.702-1.792-.455-.416-1.136-.625-2.045-.625-.619 0-1.232.098-1.837.292a4.494 4.494 0 0 0-1.508.813l-1.012-1.896c.579-.445 1.274-.785 2.086-1.021a9.204 9.204 0 0 1 2.581-.354Zm-.351 9.5c.647 0 1.218-.146 1.714-.438a2.472 2.472 0 0 0 1.074-1.291V23.02h-2.664c-1.487 0-2.23.493-2.23 1.479 0 .472.186.847.557 1.125.372.278.888.417 1.549.417ZM140.22 16.542c1.391 0 2.506.41 3.346 1.229.839.82 1.259 2.035 1.259 3.646v6.375h-2.581V21.75c0-.972-.227-1.701-.681-2.188-.455-.5-1.102-.75-1.942-.75-.949 0-1.7.292-2.25.875-.551.57-.826 1.396-.826 2.48v5.625h-2.581V16.667h2.457v1.437a4.036 4.036 0 0 1 1.61-1.166c.647-.264 1.377-.396 2.189-.396ZM159 12.333v15.459h-2.478v-1.438a3.985 3.985 0 0 1-1.59 1.188c-.619.264-1.308.395-2.065.395-1.06 0-2.017-.236-2.87-.708a5.097 5.097 0 0 1-1.982-2c-.482-.875-.723-1.875-.723-3s.241-2.118.723-2.979a5.098 5.098 0 0 1 1.982-2c.853-.472 1.81-.708 2.87-.708a5.2 5.2 0 0 1 2.003.375c.606.25 1.122.625 1.549 1.125v-5.709H159Zm-5.823 13.375c.619 0 1.177-.138 1.672-.416a3.145 3.145 0 0 0 1.177-1.23c.29-.527.434-1.138.434-1.833 0-.694-.144-1.305-.434-1.833a2.999 2.999 0 0 0-1.177-1.209 3.234 3.234 0 0 0-1.672-.437c-.62 0-1.177.146-1.673.438-.495.277-.888.68-1.177 1.208-.289.528-.433 1.139-.433 1.833 0 .695.144 1.306.433 1.834.289.527.682.937 1.177 1.229a3.362 3.362 0 0 0 1.673.416Z"/></svg>